<svg xmlns="http://www.w3.org/2000/svg" viewBox="0 0 32 32">
  <g>
    <path d="M16 4c-4.5 0-8 3.5-8 8 0 2.5 1.5 5.5 2.5 8.5.7 1.8 1.2 3.5 1.5 5.5.2 1.2 1.7 2 2.7 1.2.7-.5 1.1-1.3 1.3-2.1.2-.7.3-1.5.5-2.1.2-.6.9-.6 1.1 0 .2.6.3 1.4.5 2.1.2.8.6 1.6 1.3 2.1 1 .8 2.5 0 2.7-1.2.3-2 .8-3.7 1.5-5.5C24.5 17.5 26 14.5 26 12c0-4.5-3.5-8-8-8zm0 2c3.3 0 6 2.7 6 6 0 2.1-1.3 4.7-2.3 7.3-.7 1.7-1.2 3.3-1.5 5.1-.1.7-.7 1.2-1.2.8-.4-.3-.6-.8-.7-1.3-.2-.7-.3-1.5-.5-2.1-.2-.6-.9-.6-1.1 0-.2.6-.3 1.4-.5 2.1-.1.5-.3 1-.7 1.3-.5.4-1.1-.1-1.2-.8-.3-1.8-.8-3.4-1.5-5.1C9.3 12.7 8 10.1 8 8c0-3.3 2.7-6 6-6z" fill="#fff" stroke="#2563eb" stroke-width="2"/>
  </g>
</svg>
